<svg width="84" height="84" fill="none" xmlns="http://www.w3.org/2000/svg"><circle cx="42" cy="42" r="42" fill="#F9B300"/><path d="M49.545 57v-3.333a6.73 6.73 0 00-1.917-4.714A6.486 6.486 0 0043 47H31.546a6.485 6.485 0 00-4.629 1.953A6.73 6.73 0 0025 53.667V57m26.182-16.667l3.273 3.334L61 37m-17.182-3.333c0 3.682-2.93 6.666-6.545 6.666-3.615 0-6.546-2.984-6.546-6.666 0-3.682 2.93-6.667 6.546-6.667 3.615 0 6.545 2.985 6.545 6.667z" stroke="#fff" stroke-width="3" stroke-linecap="round" stroke-linejoin="round"/></svg>