<svg width="84" height="84" fill="none" xmlns="http://www.w3.org/2000/svg"><circle cx="42" cy="42" r="42" fill="#F9B300"/><path d="M51.619 37.5h1.476c1.566 0 3.068.632 4.175 1.757A6.05 6.05 0 0159 43.5a6.05 6.05 0 01-1.73 4.243 5.857 5.857 0 01-4.175 1.757H51.62m0-12H28V51a6.05 6.05 0 001.73 4.243A5.857 5.857 0 0033.904 57h11.81a5.857 5.857 0 004.175-1.757A6.05 6.05 0 0051.619 51V37.5zM33.905 27v4.5m5.904-4.5v4.5m5.905-4.5v4.5" stroke="#fff" stroke-width="3" stroke-linecap="round" stroke-linejoin="round"/></svg>