<svg width="86" height="86" fill="none" xmlns="http://www.w3.org/2000/svg"><path d="M51.23 43a8.23 8.23 0 11-16.46 0 8.23 8.23 0 1116.46 0z" fill="#F9B300"/><path d="M62.248 28.438a7.652 7.652 0 00-1.847-2.84 7.647 7.647 0 00-2.839-1.846c-.87-.338-2.177-.74-4.584-.85-2.604-.119-3.385-.144-9.978-.144s-7.374.025-9.978.143c-2.407.11-3.715.513-4.584.85a7.641 7.641 0 00-2.84 1.848 7.656 7.656 0 00-1.847 2.839c-.338.87-.74 2.178-.85 4.585-.118 2.603-.144 3.384-.144 9.978 0 6.592.026 7.373.144 9.977.11 2.408.512 3.715.85 4.585a7.653 7.653 0 001.847 2.839 7.644 7.644 0 002.84 1.847c.87.338 2.177.74 4.584.85 2.604.119 3.384.144 9.977.144 6.594 0 7.375-.025 9.978-.144 2.407-.11 3.715-.512 4.585-.85a8.177 8.177 0 004.686-4.686c.338-.87.74-2.177.85-4.585.12-2.604.144-3.385.144-9.977 0-6.594-.025-7.375-.143-9.978-.11-2.407-.512-3.715-.85-4.585zM43 55.679c-7.003 0-12.68-5.676-12.68-12.679S35.997 30.321 43 30.321c7.002 0 12.679 5.676 12.679 12.679S50.002 55.679 43 55.679zm13.18-22.896a2.963 2.963 0 110-5.927 2.963 2.963 0 010 5.927z" fill="#F9B300"/><path d="M43 0C19.255 0 0 19.255 0 43s19.255 43 43 43 43-19.255 43-43S66.745 0 43 0zm24.543 53.18c-.12 2.628-.538 4.423-1.148 5.994a12.625 12.625 0 01-7.221 7.22c-1.57.611-3.366 1.028-5.993 1.148-2.634.12-3.475.15-10.18.15-6.707 0-7.547-.03-10.18-.15-2.629-.12-4.424-.537-5.994-1.147a12.096 12.096 0 01-4.374-2.848 12.1 12.1 0 01-2.847-4.373c-.61-1.57-1.028-3.366-1.148-5.993-.121-2.634-.15-3.475-.15-10.181 0-6.706.029-7.547.15-10.18.119-2.628.536-4.423 1.146-5.994a12.096 12.096 0 012.85-4.373 12.093 12.093 0 014.372-2.848c1.571-.61 3.366-1.027 5.994-1.148 2.633-.12 3.474-.148 10.18-.148 6.706 0 7.547.028 10.18.15 2.628.119 4.423.536 5.994 1.145 1.647.62 3.14 1.593 4.373 2.85a12.099 12.099 0 012.848 4.372c.61 1.571 1.028 3.366 1.148 5.994.12 2.633.148 3.474.148 10.18 0 6.706-.028 7.547-.148 10.18z" fill="#F9B300"/></svg>