<svg width="37" height="35" fill="none" xmlns="http://www.w3.org/2000/svg"><path d="M2 2h6l4.02 19.766c.137.68.513 1.29 1.061 1.725a3.032 3.032 0 001.939.652H29.6a3.032 3.032 0 001.939-.652 2.945 2.945 0 001.061-1.725L35 9.381H9.5m6 22.143c0 .815-.672 1.476-1.5 1.476s-1.5-.66-1.5-1.476.672-1.476 1.5-1.476 1.5.66 1.5 1.476zm16.5 0c0 .815-.672 1.476-1.5 1.476s-1.5-.66-1.5-1.476.672-1.476 1.5-1.476 1.5.66 1.5 1.476z" stroke="#000" stroke-width="3" stroke-linecap="round" stroke-linejoin="round"/></svg>