<svg width="26" height="27" viewBox="0 0 26 27" fill="none" xmlns="http://www.w3.org/2000/svg">
<path fill-rule="evenodd" clip-rule="evenodd" d="M14.4364 13.3209L25.7025 2.19641C26.0992 1.80474 26.0992 1.16974 25.7025 0.778123C25.3059 0.386509 24.6628 0.386459 24.2662 0.778123L13 11.9027L1.73383 0.778123C1.33718 0.386459 0.694089 0.386459 0.297488 0.778123C-0.099112 1.16979 -0.0991628 1.80479 0.297488 2.19641L11.5636 13.3209L0.297488 24.4454C-0.0991628 24.8371 -0.0991628 25.4721 0.297488 25.8637C0.495789 26.0595 0.755737 26.1574 1.01569 26.1574C1.27563 26.1574 1.53553 26.0595 1.73388 25.8637L13 14.7392L24.2661 25.8637C24.4644 26.0595 24.7244 26.1574 24.9843 26.1574C25.2443 26.1574 25.5042 26.0595 25.7025 25.8637C26.0992 25.472 26.0992 24.837 25.7025 24.4454L14.4364 13.3209Z" fill="#363838"/>
</svg>
