<svg width="67" height="79" fill="none" xmlns="http://www.w3.org/2000/svg"><path d="M56.49 25.017h-1.815a5.198 5.198 0 00-3.44-1.317h-2.627v-5.267a1.312 1.312 0 001.314-1.316V11.85a1.318 1.318 0 00-1.314-1.317H31.529V7.9h1.314a3.937 3.937 0 002.787-1.157 3.954 3.954 0 000-5.586A3.937 3.937 0 0032.843 0h-10.51a3.937 3.937 0 00-2.787 1.157 3.955 3.955 0 000 5.586A3.937 3.937 0 0022.333 7.9h1.314v2.633H6.568a1.312 1.312 0 00-1.313 1.317v3.95H1.313a1.312 1.312 0 00-1.213.813 1.32 1.32 0 00.285 1.435l6.183 6.197V71.1a1.312 1.312 0 00-1.313 1.317v5.266A1.318 1.318 0 006.568 79h42.04a1.312 1.312 0 001.314-1.317v-5.266a1.318 1.318 0 00-1.314-1.317v-5.267h2.627a5.199 5.199 0 003.44-1.316h1.815a9.196 9.196 0 006.396-2.595 9.237 9.237 0 002.8-6.32A3.95 3.95 0 0067 52.666v-15.8a3.957 3.957 0 00-1.314-2.935 9.237 9.237 0 00-2.8-6.32 9.195 9.195 0 00-6.396-2.595zm1.286 30.554a1.317 1.317 0 01-1.286 1.046h-1.815a5.198 5.198 0 00-3.44-1.317h-2.627V34.233h2.627a5.199 5.199 0 003.44-1.316h1.815a1.312 1.312 0 011.286 1.045 3.95 3.95 0 00-1.286 2.905v15.8a3.957 3.957 0 001.286 2.904zM26.274 18.433v3.95H9.196v-3.95h17.078zM45.98 32.917H9.196v-7.9H45.98v7.9zM9.196 35.55h17.078v18.433H9.196V35.55zm19.706 0H45.98v18.433H28.902V35.55zm22.333-9.217c.697 0 1.365.278 1.858.772a2.636 2.636 0 010 3.724 2.624 2.624 0 01-1.858.771h-2.627v-5.267h2.627zm-5.255-3.95H28.902v-3.95H45.98v3.95zM21.02 3.95a1.318 1.318 0 011.313-1.317h10.51a1.312 1.312 0 011.314 1.317 1.318 1.318 0 01-1.314 1.317h-10.51A1.312 1.312 0 0121.02 3.95zm5.254 3.95h2.628v2.633h-2.628V7.9zM7.882 13.167h39.412V15.8H7.882v-2.633zm-1.314 5.266v2.089l-2.083-2.089h2.083zm40.726 57.934H7.882v-2.634h39.412v2.634zM9.196 71.1V56.617H45.98V71.1H9.196zm42.04-7.9h-2.628v-5.267h2.627c.697 0 1.365.278 1.858.772a2.636 2.636 0 010 3.724 2.624 2.624 0 01-1.858.771zm13.137-10.533a1.302 1.302 0 01-.657 1.13 1.315 1.315 0 00-.657 1.138v.365a6.599 6.599 0 01-1.926 4.653 6.569 6.569 0 01-4.643 1.93h-.186a4.74 4.74 0 000-2.633h.186a3.937 3.937 0 002.787-1.157 3.955 3.955 0 001.154-2.793v-.365a1.319 1.319 0 00-.656-1.139 1.3 1.3 0 01-.657-1.13v-15.8a1.304 1.304 0 01.657-1.129 1.316 1.316 0 00.656-1.139v-.365a3.954 3.954 0 00-1.154-2.793 3.937 3.937 0 00-2.787-1.157h-.186a4.74 4.74 0 000-2.633h.186a6.57 6.57 0 014.643 1.93 6.599 6.599 0 011.926 4.653v.365a1.32 1.32 0 00.657 1.139 1.3 1.3 0 01.657 1.13v15.8z" fill="#505050"/></svg>