<svg width="82" height="77" fill="#505050" xmlns="http://www.w3.org/2000/svg"><path d="M80.558 1.457a4.9 4.9 0 00-6.975 0l-9.975 10.08a1.226 1.226 0 00-.002 1.72 1.19 1.19 0 001.699.002L75.28 3.178a2.515 2.515 0 013.58 0c.475.48.736 1.123.736 1.81 0 .686-.261 1.329-.737 1.81L45.225 40.786a2.515 2.515 0 01-3.58 0 2.554 2.554 0 01-.737-1.81c0-.43.103-.843.297-1.21l.01-.016c.114-.212.257-.409.43-.584l18.63-18.826c.47-.475.471-1.244.002-1.72a1.19 1.19 0 00-1.698 0L40.312 35.078c.42-3.517 1.767-6.668 2.626-8.389a2.118 2.118 0 00-.087-2.031c-.33-.546-.877-.872-1.46-.872h-2.82a1.21 1.21 0 00-1.202 1.216 1.21 1.21 0 001.202 1.216h1.92c-1.026 2.176-2.42 5.787-2.671 9.738H6.284C6.032 32 4.638 28.39 3.614 26.219h11.94a37.6 37.6 0 001.045 3.874c.954 2.887 4.687 4.68 5.11 4.874.316.146.68.146.996 0 .422-.194 4.154-1.986 5.112-4.874.505-1.53.847-2.961 1.043-3.874h1.876c.664 0 1.201-.545 1.201-1.216 0-.671-.537-1.216-1.2-1.216h-2.863c-.584 0-1.084.426-1.183 1.01-.004.02-.378 2.178-1.152 4.523-.451 1.36-2.254 2.587-3.332 3.18-1.057-.584-2.883-1.825-3.33-3.179-.777-2.346-1.152-4.504-1.156-4.525-.1-.583-.6-1.009-1.183-1.009H2.852c-.655 0-1.255.344-1.605.92a2.07 2.07 0 00-.082 1.982c.752 1.505 2.411 5.225 2.71 9.268H2.527c-1.147 0-2.08.944-2.08 2.104v2.557c0 1.16.933 2.104 2.08 2.104h.84a382.556 382.556 0 01-.772 5.35 1.214 1.214 0 001.19 1.4c.583 0 1.095-.431 1.185-1.033.319-2.114.608-4.13.821-5.717h32.52c.594 4.418 1.684 11.413 3.248 20.829.485 2.918-.282 5.842-2.105 8.024-1.612 1.93-3.81 2.993-6.186 2.993H10.835c-2.376 0-4.573-1.063-6.186-2.993-1.823-2.182-2.59-5.106-2.104-8.025.451-2.715.869-5.27 1.242-7.591a1.214 1.214 0 00-.992-1.395 1.202 1.202 0 00-1.379 1.004c-.372 2.318-.79 4.868-1.24 7.579-.603 3.625.359 7.27 2.639 9.998C4.862 75.595 7.785 77 10.835 77H33.27c3.05 0 5.973-1.405 8.02-3.855 2.28-2.729 3.242-6.373 2.64-9.998-1.469-8.84-2.518-15.533-3.128-19.951a4.89 4.89 0 002.634.77 4.89 4.89 0 003.487-1.458l33.636-33.99A4.984 4.984 0 0082 4.988c0-1.337-.512-2.59-1.442-3.53zM2.85 40.29v-1.902h35.69a5.093 5.093 0 00.137 1.902H2.85z"/><path d="M10.835 67.79c-.38 0-.738-.198-1.065-.589-.548-.656-.773-1.576-.615-2.525 1.238-7.452 2.19-13.46 2.83-17.858a1.214 1.214 0 00-1.014-1.38 1.204 1.204 0 00-1.363 1.025c-.638 4.382-1.587 10.374-2.822 17.81-.275 1.655.144 3.295 1.15 4.499.782.935 1.812 1.45 2.9 1.45.663 0 1.2-.545 1.2-1.216 0-.672-.537-1.216-1.2-1.216zm32.687-27.634c.664 0 1.202-.544 1.202-1.215 0-.672-.538-1.216-1.202-1.216-.663 0-1.2.544-1.2 1.216 0 .671.537 1.215 1.2 1.215z"/></svg>